<svg id="Capa_1" data-name="Capa 1" xmlns="http://www.w3.org/2000/svg" viewBox="0 0 1998.05 80"><title>texture-bottom</title><path d="M1716.88,7.61c2.44.69,5.79,1.23,5-3.37-.49-3.27-3.44-4.94-6.61-4-3,.85-6.58,2.23-5.75,6.17C1710.42,11.3,1713.71,8.47,1716.88,7.61Z" transform="translate(-1.2 0)" style="fill:#fff;fill-rule:evenodd"/><path d="M1379,11.34a2.41,2.41,0,0,0,2-2.75l0-.13c-.22-2.35-1.52-2.88-3.46-2.59-1.51.25-3.22.73-2.62,2.62C1375.28,10.13,1376.82,11,1379,11.34Z" transform="translate(-1.2 0)" style="fill:#fff;fill-rule:evenodd"/><polygon points="1649.86 27.8 1649.86 27.8 1649.86 27.8 1649.86 27.8" style="fill:#fff;fill-rule:evenodd"/><polygon points="1649.86 27.8 1649.86 27.8 1649.86 27.8 1649.86 27.8" style="fill:#fff;fill-rule:evenodd"/><path d="M1995.52,76.19a4.1,4.1,0,0,0-.35-3.27,4.44,4.44,0,0,0-.59-.78c-1-1-1.83-.88-2.51-.36a74.72,74.72,0,0,1-8.36-16.51c-1-2.87-2.17-5.82-6.17-6.62a5.51,5.51,0,0,1-3.53-2.24c-3.63-4.61-4.76-3.31-6,.38-1.13,3.3-2.83,7.39-7.26,6.92-.85-.08-1.71-.1-2.58-.11l2.18-4c-1.3-.8-2.35-1.72-3.59-2.47l6.87-6.93c-3.08.15-4.77,1.85-6.64,3.23.15-.17-.22-.3-.26-.46l1.11-4.21L1958,38l.13-.13c-2-1.48-4.83-1.49-7.45-2.2-3.11-.69-6.31-.49-9.56-.43l-11.6-2.44.14,1.12c-.23-.37-.46-.73-.14-1.12-1.69-1.56-3-.1-4.41.25-3.74-3.05-7.81-2.26-11.9-.59-11.13-2-22.68-.62-34-1.32-10.27-.63-14-1.34-18.57-7.91-1.25-.44-2.4-.17-3.6-.3a5,5,0,0,0-1.38-.1,27.24,27.24,0,0,0-10.85,2.06c-1.5,1.36-3.74,1.73-5.57,2.51a21.54,21.54,0,0,1-2.78.21c-.89-.21-2.2-.83-2.81-.63-14.6,4.27-30.29,1.77-45.16,1.79-19.22.13-38.6-.25-57.92-.43-2-1.09.65-3.34-1.85-4.18-1.3-2.44,1.81-5.16-1.06-7.56a19.53,19.53,0,0,0-15.9,1.74c-7.26,2.89-16.14.24-23.48,3.38-2.44,1-6,.41-8.94.75-9.07,1.19-20.42-3.14-26.86,5.22a2.82,2.82,0,0,1-1.38.13,4.44,4.44,0,0,1,.19.62c.1.13.21.25.31.37l-.24.08a3.5,3.5,0,0,0-.07-.45.76.76,0,0,1-.2-.62c-.48.07-1,0-1.38,0,0-2.43,2.22-6.82-3.54-5.69a129.26,129.26,0,0,1-26.4,2.48c-18.67.15-37.28.16-55.84-1.33a17.68,17.68,0,0,0-1.36,1.24h0l.09.65a2.92,2.92,0,0,1,.23.29l-.18,0-.05-.33c-.18-.22-.31-.44-.09-.65-4.41.24-8.87.49-13.27.64a4.57,4.57,0,0,1-1.33-.09c-5.62-2.63-10.51,1.09-16,.72l-1.71-.94a10.2,10.2,0,0,1-1.53-1c-10.85-3.17-21.52-1.15-32.44-.6-2.12-1.45-4.34-1.57-7.11-1.54-9.41.38-19,1.38-28.25,0-2.59-1.63-5.09-.7-7.63-.26A76.13,76.13,0,0,1,1435.52,23c-9.69-.25-19.21,0-29,.36-1.16-1.19-2.86-.9-4.6-.92-9.39-.1-18.67,1.74-28.21.7a18.12,18.12,0,0,0-10.67,2c-3.38,2-5.26.62-7.75-.44-2.22-2-4-.36-5.85.32-.42,0-.91.06-1.51,0a8.26,8.26,0,0,0-8.74.45l.11.9.15.17-.12,0,0-.21c-.24-.28-.42-.58-.11-.9h0c-3-.24-5.89-.43-8.89-.72-2.17-1.8-3.82.62-5.79.38-.5-1.35,0-3.72-3-2.5-3.6,1.43-7.1,1.48-11.13,1.34-3.84-.13-6.15,2-2.95,5.16-3.59,1.2-6.79,1.4-9.15-1.69a4.91,4.91,0,0,0-4.57-2.06l-1.5.13c-8.82-.93-17.54.4-26.44.09-3-1.25-6-1.27-8.63.58a7,7,0,0,0-1.51.08c-2.8-.67-4.34,1.93-7.27,1.25-7-1.75-11.87-1.43-20.87,1.17a3.44,3.44,0,0,1-1.8-.15c-6.81-3.38-14.28-1.65-21.49-2-6.41-2.74-11.83-8.07-20.88-3.83-2.14.94-8.41,1.17-8.67-3.66,0-3.37-3.2-3.08-7.34-3.49,4.23,3.11,5.7,5.9,4.31,9.31-8,1.67-16.62-.14-24.79,1.13l-1.5.12c-7.41-.08-14.82-.07-22-.06-2.76-2.18-5.47-3.82-7.3.37-2-.07-4.59.24-5.77-.38-3.64-2.56-6.83-2.85-11.4-1.29-3.78,1.33-9.14,1.54-11.74-1.95-1.78-2.32-2.27-3.8-4.26-.33-.64,1.26-2.15,1.16-3.66,1.37-6.83.65-13.72,1.29-20.61,2.12-3.81.57-8.23-3.92-11.64.52-4,1.28-6.22-3-10-2-9.25,2.73-18.93.71-28.3,1.63-.88-.52-2.16-1.81-2.65-1.65-7.66,1.95-16.34-1.19-23.79,1.83-2-.65-4.4-1.53-6.3-.58-7.12,3.91-15.74-1-23,2-2.18-1.36-2.33-5.74-7.73-2.61-.5.38-5.09.88-6.51.08-5.27-2.53-7.5-.84-9.24,2.6,0,.88.76,2.11-.82,2.58S927,29.67,926.71,29c-2.29-1.58-.7-10.87-7.87-2.09-.32.34-1.7.34-2.61.4-1.55-2-3.84-2.08-6.37-2-9.83.46-19.59,2-29.93,1.65.7-2.85.73-5.41-4.61-6-2.38,2.75,5.2,6.38-1.61,8.35-.27-1-.62-3.08-1.42-2.49-3.51,2.27-7.59.27-11.5,1.9-10.78,5-20.59,3.18-25.7-4-.74,4.09-1.67,8.18-9.37,8-.49,0-.87.77-1.31,1.11-4.25-.55-7.15,3.11-11.61,1.58-1.51.08-2.9.17-4.35.2-3.27,2.46-6.87.12-10.23,0-11.5-.27-21.78,4.55-33.44,3.79-.78.06-1.79,1.13-2.71,1.67-3,.16-5.85.28-8.86.4l-2.9.16c-4.41-2.89-7.69-2.26-10.11,1.51a6.18,6.18,0,0,1-1.31,1.24c-1.43-.27-3-.6-4.48-1-2.7-2.09-4.84.58-7.3.36-1.77-.86-4.19-.76-5.69-.77-4.15-.1-9.58-1.66-11.78,2.73-1.4.39-2.8.88-4.26,1.35-.94-.69-1.83-1.21-2.65-1.86-1-.87-1.11-2.52-3.54-1.89-1.71.42-1.15,1.68-1.37,2.74-.32.83-.71,1.61-1.1,2.44l-1.39.08c-2.57-2.21-4.71-3.17-7.94-.32-1.36,1.06-5.23,1.54-7.38,1-1.85-.51-1-2.92-1-4.51.15-1,1.35-2.38-.93-2.55-2.58-.36-2.27,1.2-2.26,2.48s-.14,4.07-1,3.77c-4.51-2-6.69,1.76-10.23,1.55-1.62-2-.63-2.81,2.16-3.38,1.94-.24,5.4.63,5.06-1.64s-3.68-1.36-6.09-1.49a41.71,41.71,0,0,0-4.2-.5c-5-.62-11.76-2.85-7.81,6.49-3.39-3.08-4.48-6.17-6.79-5.64-6,1.43-11.31-2.12-17-.85-2.34-.17-5.15-.89-7-.43-4,1.28,3.26,3.08-.17,4.91-3.72-2.3-7.85-4.52-13.25-3.47-2,0-3.44-3.26-6-.7-3.5.28-5.83-2.19-9.5-2.14-3.74.22-5.43,2-7.3,3.86-.57.78-1,1.6,0,2.48,2.17,1.66,4.43.77,6.86.19a1.88,1.88,0,0,1,1.8.24c-7.19.64-14.4,5.47-21.88.7,2,.2,4.26.5,6.48.67,2.64.09,5.07-.45,5.33-2.56.26-2.34-2.06-3.3-4.64-3.44-8.48-.25-17-4.18-25.19.58-1.84,1-3.9-.4-5.65-.24-5.15.8-10.25-3.32-15.4-.45l.08,1.07c-2.12.28-2.75,1.18-2.56,2.65.48,3.29,5,2.08,7.93,4-6.54.88-2.69,4.46-4.12,7.51-6.71-6-16.29-2.56-23.78-5.43-.9,0-1.87.07-2.95.12-1.69-1.74-3.51-3-4.17.34-.29,1.36.42,3.6-2.63,2.78-6.08-1.58-12-1.26-18.08-1.12-3.32.06-4.71,3.6-8.43,1.74-.05-3.8-3.23-4.09-7.51-3.93-3.86,0-8.25,1.57-11.6-2.53-.92-1.09-7.58-3.67-11,.42,1.87-.12,3.93-.57,5.3,1.73-5.27-1.16-8.26,1.88-12.91,2.29,3.63,2.92,7.44,2.34,11.24,2.21-1,1.34-2.08,2.63-3.09,4-3.8-1.5-7-5.73-11.1-1.09-4.88-3.49-6.19-3.76-11.07-2L423,57.5c.6-3.52-2-2.73-4.69-1.93-.1-.76-.19-1.47-.23-2.14,1.14-1.51,1-3-.5-4.44a14.09,14.09,0,0,1-1.45.08c-4.26-5.81-8.84-2.12-13.24-.41-2.77-1.74-3.31.1-4.32,1.26-4.88,2-11.69-1.38-15.72,3.65-.1-5.62-5.74-4.53-9-4.87-4.8-.7-10.06-1.68-15-.08-3.75.71-2.17-3.4-5.78-3.35-.34,2.87-.52,4.41-6.76,4s-13.27-1.3-19.75-.07c-4.72-2.87-3.67,1.47-5.5,2.29a4,4,0,0,0-1.59-1c-4.05-1.47-8.06-2.27-12.67-1.28-5.15,1.05-10.33-2.31-15.64-.46-1.89.77-3.67,1.55-5.57,2.46s-3.64.8-4.41-1a1.72,1.72,0,0,0-2.05-1.3,1.64,1.64,0,0,0-.94.58c-2.21,2.93-7,2.72-9.86,4.74-3.31-3.57-7.91-1.29-11.93-1.61-1.68-.15-4,.21-4.8-.52-1.87-1.53,3.18-1.26,2-3.12-.54-.11-1.61-.67-1.85-.51-3.84,3-9.84,4-12.5,7.71-1.64,2.15-3.85,1.68-6.14,1.64-1.49-.27-2.65-1.46-4.67-.74-8.9,3.06-18.83,2.89-28.36,3.53-3.91-1.86-7.89-.1-11.85-.46-2.68-.85-2.6-3.1-3.46-4.41-11.47,7.74-24.4,2-36.5,2.09-1-1.81,4.64-3.56.17-5-3.81-1.24-2.71,1.8-4,3-1.93,1.79-4.45,1.66-7,0-1.18-.84-2.63-4.16-4.75-.38-.45.91-1.76.6-2.34-.22-3.59-4.25-9.37-7.91-8.2-13.71.22-1,.86-2.14-2.08-2.37.45,4.31-5.17,6.46-6.56,10.12-.52,1.18-1.5,1.5-2.86.75-4.42-2.55-4.42.73-5.79,2.23l-2.9.12c-1.31-3.9-5.87-4.24-10.36-5.1.19,1.47,4.08,3.9-1.57,3.62a48.68,48.68,0,0,1-12.89-.92,4,4,0,0,0-2.25-2.39,3.81,3.81,0,0,0-.93-.27c-1.41-.17-2,.4-2.22,1.23A74.8,74.8,0,0,1,55.06,40.3c-2.53-1.68-5.24-3.33-8.91-1.55a5.49,5.49,0,0,1-4.17.34c-5.67-1.48-5.79.24-4.53,3.91,1.08,3.32,2.2,7.6-1.61,9.9-2.4,1.47-4.4,3.48-7.47,5.1-.8-2.73-3.54-3.84-5.73-5-3.27-1.08-6.24-.57-4.16,2,2.53,3.45.93,6.13-1.48,7.91-6.06,4.44-2.1,8.29.29,12.4-.23,1.5-1,2.71-3.41,2.89C12,76.76,8,76.14,9.16,73.61c1.49-3-.9-5.38-1.16-8.09-4.09,1.58-2.08,4.39-2.65,6.85C5,73.51,6.1,75.1,3.66,75.9.69,76.68,1,78.4,1.57,80H1999.25A49.45,49.45,0,0,1,1995.52,76.19Z" transform="translate(-1.2 0)" style="fill:#fff;fill-rule:evenodd"/></svg>
